<svg height="512pt" viewBox="-11 0 512 512" width="512pt" xmlns="http://www.w3.org/2000/svg"><path d="m201.324219 202.6875h-190.679688v298.667969h298.667969l.019531-298.6875zm0 0" fill="#eceff1"/><path d="m489.257812 261.375-85.332031-149.332031c-2.921875-5.121094-9.472656-6.933594-14.550781-3.96875-3.433594 1.964843-5.203125 5.570312-5.203125 9.257812h-64.34375c0-3.6875-1.769531-7.292969-5.203125-9.257812-5.121094-2.964844-11.628906-1.152344-14.550781 3.96875l-85.332031 149.332031c-.917969 1.621094-1.410157 3.4375-1.410157 5.292969v42.664062c0 4.589844 2.945313 8.664063 7.296875 10.113281 4.417969 1.492188 9.171875-.042968 11.90625-3.710937l119.464844-159.277344 119.464844 159.277344c2.050781 2.730469 5.25 4.265625 8.535156 4.265625 1.128906 0 2.261719-.171875 3.371094-.554688 4.351562-1.449218 7.296875-5.523437 7.296875-10.113281v-42.664062c0-1.855469-.492188-3.671875-1.410157-5.292969zm0 0" fill="#607d8b"/><path d="m394.667969 96c0 23.5625-19.105469 42.667969-42.667969 42.667969s-42.667969-19.105469-42.667969-42.667969 19.105469-42.667969 42.667969-42.667969 42.667969 19.105469 42.667969 42.667969zm0 0" fill="#eceff1"/><path d="m160 362.667969c-5.886719 0-10.667969-4.78125-10.667969-10.667969v-149.332031c0-5.890625 4.78125-10.667969 10.667969-10.667969s10.667969 4.777344 10.667969 10.667969v149.332031c0 5.886719-4.78125 10.667969-10.667969 10.667969zm0 0"/><path d="m53.332031 362.667969h-42.664062c-5.890625 0-10.667969-4.78125-10.667969-10.667969s4.777344-10.667969 10.667969-10.667969h42.664062c5.890625 0 10.667969 4.78125 10.667969 10.667969s-4.777344 10.667969-10.667969 10.667969zm0 0"/><path d="m202.667969 362.667969h-85.335938c-5.886719 0-10.664062-4.78125-10.664062-10.667969s4.777343-10.667969 10.664062-10.667969h85.335938c5.886719 0 10.664062 4.78125 10.664062 10.667969s-4.777343 10.667969-10.664062 10.667969zm0 0"/><path d="m309.332031 362.667969h-42.664062c-5.890625 0-10.667969-4.78125-10.667969-10.667969s4.777344-10.667969 10.667969-10.667969h42.664062c5.890625 0 10.667969 4.78125 10.667969 10.667969s-4.777344 10.667969-10.667969 10.667969zm0 0"/><path d="m160 512c-5.886719 0-10.667969-4.777344-10.667969-10.667969v-42.664062c0-5.890625 4.78125-10.667969 10.667969-10.667969s10.667969 4.777344 10.667969 10.667969v42.664062c0 5.890625-4.78125 10.667969-10.667969 10.667969zm0 0"/><path d="m160 405.332031c-5.886719 0-10.667969-4.777343-10.667969-10.664062v-42.667969c0-5.886719 4.78125-10.667969 10.667969-10.667969s10.667969 4.78125 10.667969 10.667969v42.667969c0 5.886719-4.78125 10.664062-10.667969 10.664062zm0 0"/><path d="m352 149.332031c-29.398438 0-53.332031-23.933593-53.332031-53.332031s23.933593-53.332031 53.332031-53.332031 53.332031 23.933593 53.332031 53.332031-23.933593 53.332031-53.332031 53.332031zm0-85.332031c-17.644531 0-32 14.355469-32 32s14.355469 32 32 32 32-14.355469 32-32-14.355469-32-32-32zm0 0"/><path d="m309.332031 512h-298.664062c-5.890625 0-10.667969-4.777344-10.667969-10.667969v-42.664062c0-5.910157 4.777344-10.667969 10.667969-10.667969 5.886719 0 10.664062 4.757812 10.664062 10.667969v32h277.335938v-224c0-5.890625 4.777343-10.667969 10.664062-10.667969 5.890625 0 10.667969 4.777344 10.667969 10.667969v234.664062c0 5.890625-4.777344 10.667969-10.667969 10.667969zm0 0"/><path d="m10.667969 405.332031c-5.890625 0-10.667969-4.777343-10.667969-10.664062v-192c0-5.890625 4.777344-10.667969 10.667969-10.667969h200.765625c5.890625 0 10.667968 4.777344 10.667968 10.667969 0 5.886719-4.777343 10.664062-10.667968 10.664062h-190.101563v181.335938c0 5.886719-4.777343 10.664062-10.664062 10.664062zm0 0"/><path d="m480 320c-3.285156 0-6.484375-1.535156-8.535156-4.265625l-119.464844-159.277344-119.464844 159.277344c-2.734375 3.667969-7.488281 5.203125-11.90625 3.710937-4.351562-1.449218-7.296875-5.523437-7.296875-10.113281v-42.664062c0-1.855469.492188-3.671875 1.410157-5.292969l85.332031-149.332031c2.921875-5.121094 9.429687-6.933594 14.550781-3.96875 5.117188 2.921875 6.890625 9.429687 3.96875 14.550781l-83.925781 146.878906v7.828125l108.796875-145.066406c4.011718-5.375 13.035156-5.375 17.070312 0l108.796875 145.066406v-7.828125l-83.925781-146.878906c-2.921875-5.121094-1.148438-11.628906 3.96875-14.550781 5.078125-2.964844 11.628906-1.152344 14.550781 3.96875l85.332031 149.332031c.917969 1.621094 1.410157 3.4375 1.410157 5.292969v42.664062c0 4.589844-2.945313 8.664063-7.296875 10.113281-1.109375.382813-2.242188.554688-3.371094.554688zm0 0"/><path d="m352 64c-5.886719 0-10.667969-4.777344-10.667969-10.667969v-42.664062c0-5.890625 4.78125-10.667969 10.667969-10.667969s10.667969 4.777344 10.667969 10.667969v42.664062c0 5.890625-4.78125 10.667969-10.667969 10.667969zm0 0"/></svg>